Coordinates
version=1
nRows=18
nColumns=38
inDegrees=yes

Units are S.I. units (second, meters, Newtons, ...)
If the header above contains a line with 'inDegrees', this indicates whether rotational values are in degrees (yes) or radians (no).

endheader
time	pelvis_tilt	pelvis_list	pelvis_rotation	pelvis_tx	pelvis_ty	pelvis_tz	hip_flexion_r	hip_adduction_r	hip_rotation_r	knee_angle_r	ankle_angle_r	subtalar_angle_r	mtp_angle_r	hip_flexion_l	hip_adduction_l	hip_rotation_l	knee_angle_l	ankle_angle_l	subtalar_angle_l	mtp_angle_l	lumbar_extension	lumbar_bending	lumbar_rotation	arm_flex_r	arm_add_r	arm_rot_r	elbow_flex_r	pro_sup_r	wrist_flex_r	wrist_dev_r	arm_flex_l	arm_add_l	arm_rot_l	elbow_flex_l	pro_sup_l	wrist_flex_l	wrist_dev_l
      0.32400000	     -3.22979218	     -7.43446467	      7.08085984	     -2.90745004	      0.99620583	      0.15297989	     47.45217427	     -0.58060731	    -20.15198177	    -27.42667010	     -1.78552184	     11.30184938	     32.80493398	    -13.87672429	    -10.71890768	     -0.61808347	   -100.39742945	    -22.47039946	      6.54572463	     24.42498216	    -13.47974511	     15.43334925	     -9.13821846	    -55.39700043	    -25.27926392	    -10.96929920	     69.92058741	    110.12726541	      0.00000000	      0.00000000	     12.81143524	    -19.85340037	     11.07745598	    100.08081676	    169.21350448	      0.00000000	      0.00000000
      0.32800000	     -2.87438185	     -7.78224210	      7.07894688	     -2.87122560	      0.99595622	      0.15322618	     45.98659215	     -0.20171022	    -22.02268668	    -27.62792998	     -1.90899673	      9.79535008	     32.56926891	    -12.02311189	    -11.18015457	     -0.68764851	   -104.80112988	    -21.75365154	      4.45451049	     24.55257745	    -14.27149365	     15.85384845	     -8.51256431	    -52.99262985	    -26.32381978	     -9.64654676	     71.04388629	    110.11346065	      0.00000000	      0.00000000	     10.88859924	    -19.50117583	     11.16667737	     95.46654571	    169.70235179	      0.00000000	      0.00000000
      0.33200000	     -2.51618067	     -8.21431024	      7.10842757	     -2.83527318	      0.99546313	      0.15362183	     44.55564509	      0.23805644	    -23.80849814	    -28.07436719	     -2.07814611	      8.55084600	     32.34318981	    -10.04234548	    -11.73737174	     -0.63773244	   -109.12156246	    -20.78329757	      2.72987758	     24.64416268	    -15.08940428	     16.33500787	     -7.80512807	    -50.43808345	    -27.36013298	     -8.28828271	     72.06995886	    110.09025091	      0.00000000	      0.00000000	      9.19000290	    -19.10284162	     11.34008058	     90.68276892	    170.26414885	      0.00000000	      0.00000000
      0.33600000	     -2.24766707	     -8.70074079	      7.03873545	     -2.79914724	      0.99456305	      0.15407553	     43.28112697	      0.74665945	    -25.46410603	    -28.91355800	     -2.18289492	      7.74209909	     32.10334231	     -7.91793430	    -12.28357716	     -0.62286438	   -113.31702524	    -19.61488540	      1.01998446	     24.51534484	    -15.79556133	     16.86144532	     -6.95621639	    -47.86095634	    -28.41678108	     -6.98598990	     73.07745717	    110.06805953	      0.00000000	      0.00000000	      7.73336161	    -18.65405554	     11.47089433	     85.61821815	    170.82487455	      0.00000000	      0.00000000
      0.34000000	     -2.11335902	     -9.17158368	      6.91049840	     -2.76298166	      0.99322631	      0.15451186	     42.18761053	      1.23453979	    -26.77733711	    -30.03895661	     -2.27550555	      7.48618741	     31.83555025	     -5.55110320	    -12.76530111	     -0.56073347	   -117.38362029	    -18.36180334	     -0.54871612	     24.20979789	    -16.35663836	     17.35245486	     -6.02311217	    -45.23427325	    -29.45128559	     -5.75755092	     74.00598116	    110.00275298	      0.00000000	      0.00000000	      6.43641116	    -18.18395657	     11.60522072	     80.38499042	    171.45709736	      0.00000000	      0.00000000
      0.34400000	     -1.81319416	     -9.49165901	      6.53528810	     -2.72647325	      0.99190569	      0.15521631	     40.94648001	      1.78578094	    -27.60756554	    -31.37801110	     -2.54515168	      7.67137649	     31.74018805	     -3.43948761	    -12.96999564	     -0.69249740	   -121.17657018	    -16.83575654	     -1.70001253	     24.08946124	    -17.13400040	     17.61734440	     -4.80998127	    -42.52997363	    -30.48711254	     -4.50417753	     74.87231752	    110.05964623	      0.00000000	      0.00000000	      5.35532792	    -17.62096365	     11.80208420	     74.87310094	    171.65880663	      0.00000000	      0.00000000
      0.34800000	     -1.68498771	    -10.38701545	      6.51718683	     -2.68981222	      0.99019465	      0.15594762	     39.67594470	      2.70633596	    -28.71005725	    -32.28170395	     -2.95644693	      8.72855662	     31.60067177	     -0.78354281	    -13.99433585	     -0.39643821	   -124.89757638	    -15.64087816	     -2.90431692	     22.85252117	    -17.53412046	     18.51182923	     -3.83443771	    -39.64774210	    -31.61175612	     -3.05797359	     75.60876134	    109.90417526	      0.00000000	      0.00000000	      4.37143874	    -17.13822307	     12.06308235	     69.16464262	    172.38701484	      0.00000000	      0.00000000
      0.35200000	     -1.82882768	    -11.28340763	      5.91392805	     -2.65345006	      0.98779994	      0.15807620	     38.74306425	      4.23661340	    -28.61500560	    -33.05919397	     -3.15930260	      8.62999009	     31.46960904	      1.98231112	    -14.90066390	     -0.31330513	   -128.40914486	    -13.91509321	     -3.14792862	     21.68987314	    -17.84080231	     19.13760904	     -2.28148072	    -36.63631579	    -32.71657161	     -1.53820516	     76.29436817	    109.76857991	      0.00000000	      0.00000000	      3.60267528	    -16.86586873	     12.62217346	     63.40347967	    173.05087476	      0.00000000	      0.00000000
      0.35600000	     -1.84953467	    -11.93044540	      5.23511127	     -2.61746330	      0.98562949	      0.15998324	     37.64019528	      5.73562503	    -27.86888791	    -33.85459885	     -2.82368980	      8.37419093	     31.55740451	      4.80328751	    -15.59233258	     -0.33644698	   -131.71616897	    -12.57092732	     -3.61072444	     21.57636325	    -18.37758939	     19.51322700	     -0.69938711	    -33.35132676	    -33.88097804	     -0.00181381	     76.93216324	    109.83704893	      0.00000000	      0.00000000	      3.03819328	    -16.57216064	     13.23700165	     57.42839214	    173.20009043	      0.00000000	      0.00000000
      0.36000000	     -2.25690574	    -12.92502301	      4.16053109	     -2.58107205	      0.98287685	      0.16328268	     36.80229148	      7.99303770	    -26.66878226	    -34.47264756	     -0.93535591	      7.60271536	     30.37374259	      8.05740967	    -16.92008330	     -0.37624738	   -134.77560660	    -11.49069754	     -3.56319131	     21.35553585	    -18.52934627	     20.00023775	      1.14261911	    -29.74293569	    -34.98411838	      1.89283001	     77.36972844	    109.87234821	      0.00000000	      0.00000000	      2.35442926	    -16.57971623	     14.34060008	     51.56496182	    173.50679143	      0.00000000	      0.00000000
      0.36400000	     -2.66766718	    -13.46590372	      2.63288764	     -2.54463386	      0.98027262	      0.16602570	     35.85854576	      9.81238862	    -25.66877136	    -35.94012283	      3.07058540	      7.55441192	     27.95334512	     11.24460792	    -17.65254109	     -0.90325500	   -137.46220493	    -10.71822136	     -3.76292789	     20.98052636	    -18.81338543	     20.00023775	      3.30402544	    -26.00342724	    -36.21705256	      3.76894658	     77.84993461	    109.94982808	      0.00000000	      0.00000000	      1.58048982	    -16.40344452	     15.13909249	     45.78951154	    173.65317737	      0.00000000	      0.00000000
      0.36800000	     -3.78843863	    -13.69874203	      1.07670148	     -2.50837765	      0.97598143	      0.16850156	     35.68814175	     11.19785368	    -24.86511425	    -38.30773116	     10.05097589	      7.47224130	      8.33498818	     15.28780303	    -18.09114504	     -1.33246239	   -140.06531991	     -9.68548464	     -3.83647462	     18.36286930	    -18.21456871	     19.66281267	      5.02500104	    -21.94453583	    -37.47945252	      6.07746464	     77.95303089	    110.03153401	      0.00000000	      0.00000000	      0.23951928	    -16.50261881	     15.74387349	     41.50567626	    174.12812681	      0.00000000	      0.00000000
      0.37200000	     -3.22283844	    -14.15823297	      0.13587303	     -2.47143878	      0.97437758	      0.16996354	     33.34278509	     12.67124306	    -24.28891023	    -39.90374323	     14.80605952	      7.18552264	      8.18047861	     17.63768877	    -18.72585759	     -1.34709443	   -142.07180786	     -8.82352028	     -3.82145945	     18.45606953	    -19.40145312	     19.67634344	      7.04822466	    -18.13985396	    -38.51400783	      7.59087604	     78.67825534	    110.18854019	      0.00000000	      0.00000000	     -0.24199733	    -16.38533343	     17.04544646	     36.01183793	    174.23252981	      0.00000000	      0.00000000
      0.37600000	     -3.04938690	    -14.65774842	     -1.15484079	     -2.43445347	      0.97229129	      0.17221660	     31.34420417	     14.39425104	    -23.05176944	    -41.20446269	     18.51519145	      6.70025269	      7.16995189	     20.30734859	    -19.61654880	     -1.42368988	   -143.77321480	     -7.96816046	     -3.58908355	     18.65037105	    -20.20201477	     19.52046554	      9.15848173	    -13.93347512	    -39.47273788	      9.35216680	     79.03263598	    110.32471800	      0.00000000	      0.00000000	     -1.36806394	    -16.56920884	     18.13202463	     31.67664796	    174.22456477	      0.00000000	      0.00000000
      0.38000000	     -2.09442500	    -14.55006177	     -2.53989531	     -2.39675235	      0.97153334	      0.17386453	     28.40536877	     15.22847247	    -21.54111943	    -42.83886366	     22.08805954	      5.91307498	      3.97159526	     22.25664045	    -20.11420719	     -2.34170274	   -144.93357110	     -8.08896669	     -4.69459124	     17.91291159	    -21.71864165	     18.63073877	     10.93036164	     -8.89450465	    -40.58273492	     12.21198642	     79.10860625	    110.63132413	      0.00000000	      0.00000000	     -3.28835454	    -16.92251711	     18.36816744	     28.74222965	    173.59035869	      0.00000000	      0.00000000
      0.38400000	     -1.44972643	    -14.88630721	     -3.61989436	     -2.35857521	      0.97043123	      0.17586967	     25.71093921	     16.16424477	    -20.30891627	    -44.29475917	     25.07199276	      6.49857639	      0.78601212	     24.55156226	    -20.84480344	     -2.36212506	   -145.81949857	     -7.79883469	     -4.39449951	     17.75476457	    -22.69860485	     18.24539011	     12.49023902	     -4.02944583	    -41.25206943	     14.50610139	     79.16380718	    111.04834641	      0.00000000	      0.00000000	     -5.43936217	    -17.34989845	     18.74561407	     26.18933225	    172.59842735	      0.00000000	      0.00000000
      0.38800000	     -0.95584593	    -15.04056618	     -4.54733413	     -2.32100267	      0.96924545	      0.17828331	     23.12947260	     16.89173079	    -18.72923129	    -45.52425924	     27.19913428	      6.56429972	      0.39683928	     27.20704677	    -21.34870377	     -2.15570515	   -146.52712774	     -7.10922903	     -4.46429615	     17.52987626	    -23.45446118	     17.65233468	     14.07457193	      0.31352559	    -41.67648828	     16.05277863	     79.66680916	    111.36065965	      0.00000000	      0.00000000	     -7.50924345	    -17.97859659	     18.87206876	     24.20597187	    171.99202271	      0.00000000	      0.00000000
      0.39200000	     -0.39941294	    -14.94809334	     -5.96450776	     -2.28218307	      0.96882617	      0.18077440	     19.97374332	     17.39417509	    -16.40959528	    -46.33166766	     28.91375881	      7.21136071	      0.58520577	     29.24037222	    -21.78188285	     -2.56712109	   -146.60530586	     -6.44459345	     -4.19938816	     17.47672879	    -24.17366750	     16.67694949	     15.77519437	      4.75497635	    -41.90311164	     17.68967497	     79.97367788	    111.62725943	      0.00000000	      0.00000000	    -10.14449530	    -18.76692102	     19.11690172	     23.09617851	    171.63032052	      0.00000000	      0.00000000
